<svg width="56" height="55" viewBox="0 0 56 55" fill="none" xmlns="http://www.w3.org/2000/svg">
<rect x="0.9552" width="55.0448" height="55" rx="10" fill="#F065A7"/>
<path d="M19.1888 28.5313H25.3813V26.4688H19.1888V17.0287C19.1888 16.9391 19.2122 16.8511 19.2566 16.7732C19.3011 16.6954 19.365 16.6305 19.4422 16.5849C19.5194 16.5393 19.6072 16.5146 19.6969 16.5132C19.7865 16.5119 19.875 16.5338 19.9536 16.577L39.008 27.0483C39.0889 27.0929 39.1564 27.1582 39.2034 27.2377C39.2504 27.3171 39.2751 27.4077 39.2751 27.5C39.2751 27.5923 39.2504 27.6829 39.2034 27.7624C39.1564 27.8418 39.0889 27.9072 39.008 27.9517L19.9536 38.423C19.875 38.4662 19.7865 38.4882 19.6969 38.4868C19.6072 38.4854 19.5194 38.4607 19.4422 38.4151C19.365 38.3695 19.3011 38.3046 19.2566 38.2268C19.2122 38.149 19.1888 38.0609 19.1888 37.9713V28.5313Z" fill="white"/>
</svg>
